<svg xmlns="http://www.w3.org/2000/svg" width="430" height="430" style="width:100%;height:100%;content-visibility:visible" viewBox="0 0 430 430"><defs><mask id="v" mask-type="alpha"><g filter="url(#a)"><path fill="#fff" d="M0 0h430v430H0z" opacity="0"/><use xmlns:ns1="http://www.w3.org/1999/xlink" ns1:href="#b"/></g></mask><mask id="t" mask-type="alpha"><g filter="url(#c)"><path fill="#fff" d="M0 0h430v430H0z" opacity="0"/><use xmlns:ns2="http://www.w3.org/1999/xlink" ns2:href="#d"/></g></mask><mask id="s" mask-type="alpha"><use xmlns:ns3="http://www.w3.org/1999/xlink" ns3:href="#e"/></mask><mask id="r" mask-type="alpha"><g filter="url(#f)"><path fill="#fff" d="M0 0h430v430H0z" opacity="0"/><use xmlns:ns4="http://www.w3.org/1999/xlink" ns4:href="#g"/></g></mask><mask id="q" mask-type="alpha"><g filter="url(#i)"><path fill="#fff" d="M0 0h430v430H0z" opacity="0"/><use xmlns:ns5="http://www.w3.org/1999/xlink" ns5:href="#j"/></g></mask><mask id="p" mask-type="alpha"><g filter="url(#k)"><path fill="#fff" d="M0 0h430v430H0z" opacity="0"/><use xmlns:ns6="http://www.w3.org/1999/xlink" ns6:href="#l"/></g></mask><filter id="a" width="100%" height="100%" x="0%" y="0%" filterUnits="objectBoundingBox"><feComponentTransfer in="SourceGraphic"><feFuncA tableValues="1.0 0.0" type="table"/></feComponentTransfer></filter><filter id="c" width="100%" height="100%" x="0%" y="0%" filterUnits="objectBoundingBox"><feComponentTransfer in="SourceGraphic"><feFuncA tableValues="1.0 0.0" type="table"/></feComponentTransfer></filter><filter id="f" width="100%" height="100%" x="0%" y="0%" filterUnits="objectBoundingBox"><feComponentTransfer in="SourceGraphic"><feFuncA tableValues="1.0 0.0" type="table"/></feComponentTransfer></filter><filter id="i" width="100%" height="100%" x="0%" y="0%" filterUnits="objectBoundingBox"><feComponentTransfer in="SourceGraphic"><feFuncA tableValues="1.0 0.0" type="table"/></feComponentTransfer></filter><filter id="k" width="100%" height="100%" x="0%" y="0%" filterUnits="objectBoundingBox"><feComponentTransfer in="SourceGraphic"><feFuncA tableValues="1.0 0.0" type="table"/></feComponentTransfer></filter><g id="b" style="display:none"><path/><path fill-opacity="0" class="primary"/></g><g id="d" style="display:block"><path fill-opacity="0" stroke="#121331" stroke-width="7" d="M142.372 275.015v80.844c0 11.038-8.962 20-20 20h-5.244c-11.038 0-20-8.962-20-20v-80.844c0-11.038 8.962-20 20-20h5.244c11.038 0 20 8.962 20 20z"/><path fill="red" d="M142.372 275.015v80.844c0 11.038-8.962 20-20 20h-5.244c-11.038 0-20-8.962-20-20v-80.844c0-11.038 8.962-20 20-20h5.244c11.038 0 20 8.962 20 20"/></g><g id="e" style="display:block"><path fill-opacity="0" stroke="#121331" stroke-width="7" d="M142.372 275.015v80.844c0 11.038-8.962 20-20 20h-5.244c-11.038 0-20-8.962-20-20v-80.844c0-11.038 8.962-20 20-20h5.244c11.038 0 20 8.962 20 20z"/><path fill="red" d="M142.372 275.015v80.844c0 11.038-8.962 20-20 20h-5.244c-11.038 0-20-8.962-20-20v-80.844c0-11.038 8.962-20 20-20h5.244c11.038 0 20 8.962 20 20"/></g><g id="g" clip-path="url(#m)" style="display:block"><g style="display:block"><path fill-opacity="0" stroke="#121331" stroke-width="0" d="M142.372 275.015v80.844c0 11.038-8.962 20-20 20h-5.244c-11.038 0-20-8.962-20-20v-80.844c0-11.038 8.962-20 20-20h5.244c11.038 0 20 8.962 20 20z"/><path fill="red" d="M142.372 275.015v80.844c0 11.038-8.962 20-20 20h-5.244c-11.038 0-20-8.962-20-20v-80.844c0-11.038 8.962-20 20-20h5.244c11.038 0 20 8.962 20 20"/></g><g style="display:block"><path fill-opacity="0" stroke="#08A789" stroke-linecap="round" stroke-linejoin="round" stroke-width="0" d="M276.781 68.319c-11.772-10.017-41.371-14.513-69.148-13.489-22.627.834-44.044 5.33-53.633 13.489m61 114.651V54.88"/><path fill="red" d="M276.781 68.319c-11.772-10.017-41.371-14.513-69.148-13.489-22.627.834-44.044 5.33-53.633 13.489m61 114.651V54.88"/><path fill-opacity="0" stroke="#121331" stroke-linecap="round" stroke-linejoin="round" stroke-width="0" d="m143.182 343.231 50.683 9.455a114 114 0 0 0 41.632.033l51.321-9.488m.182-39.056H143.364m143.573.134-.049 38.761m-90.325-39.864.029-36.207.065-83.604S203 183.29 215 183.29c11.75 0 18.343.105 18.343.105l-.019 25.105-.047 59.499-.027 35.207" class="primary"/><path fill="red" d="m143.182 343.231 50.683 9.455a114 114 0 0 0 41.632.033l51.321-9.488m.182-39.056H143.364m143.573.134-.049 38.761m-90.325-39.864.029-36.207.065-83.604S203 183.29 215 183.29c11.75 0 18.343.105 18.343.105l-.019 25.105-.047 59.499-.027 35.207"/></g></g><g id="j" style="display:block"><path fill-opacity="0" stroke="#090B2E" stroke-width="0" d="M141.872 275.015v80.844c0 11.038-8.962 20-20 20h-5.244c-11.038 0-20-8.962-20-20v-80.844c0-11.038 8.962-20 20-20h5.244c11.038 0 20 8.962 20 20z"/><path fill="red" d="M141.872 275.015v80.844c0 11.038-8.962 20-20 20h-5.244c-11.038 0-20-8.962-20-20v-80.844c0-11.038 8.962-20 20-20h5.244c11.038 0 20 8.962 20 20"/></g><clipPath id="n"><path d="M0 0h430v430H0z"/></clipPath><clipPath id="u"><path d="M0 0h430v430H0z"/></clipPath><clipPath id="o"><path d="M0 0h430v430H0z"/></clipPath><clipPath id="m"><path d="M0 0h430v430H0z"/></clipPath><path id="l" fill="#3A3347" d="M22.622-40.422v80.844c0 11.038-8.962 20-20 20h-5.244c-11.038 0-20-8.962-20-20v-80.844c0-11.038 8.962-20 20-20h5.244c11.038 0 20 8.962 20 20" style="display:block" transform="translate(127.75 315.437)"/></defs><g clip-path="url(#n)"><g clip-path="url(#o)" style="display:block"><path fill="#3A3347" d="M-22.622-12.535v-27.887c0-11.038 8.962-20 20-20h5.244c11.038 0 20 8.962 20 20v80.844c0 11.038-8.962 20-20 20h-5.244c-11.038 0-20-8.962-20-20V29.164" class="secondary" style="display:block" transform="translate(309.378 315.421)"/><g opacity=".5" style="mix-blend-mode:multiply;display:block"><path fill="none" stroke="#3A3347" stroke-linecap="round" stroke-linejoin="round" stroke-width="7" d="M317.191 294.365h12.612m-12.612 42.224h12.612" class="secondary" opacity="1"/></g><path fill="#3A3347" d="M22.622-40.422v80.844c0 11.038-8.962 20-20 20h-5.244c-11.038 0-20-8.962-20-20v-80.844c0-11.038 8.962-20 20-20h5.244c11.038 0 20 8.962 20 20" class="secondary" style="display:block" transform="translate(119.75 315.437)"/><g mask="url(#p)" opacity=".5" style="mix-blend-mode:multiply;display:block"><path fill="#3A3347" d="M142.372 275.015v80.844c0 11.038-8.962 20-20 20h-5.244c-11.038 0-20-8.962-20-20v-80.844c0-11.038 8.962-20 20-20h5.244c11.038 0 20 8.962 20 20" class="secondary" opacity="1"/></g><g fill="#646E78" mask="url(#q)" style="display:block"><path d="m196.563 307.956.029-40.957.065-83.604S203 183.29 215 183.29c11.75 0 18.343.105 18.343.105l-.019 25.105-.047 59.499c-.009 11.735-.027 39.957-.027 39.957" class="tertiary"/><path fill-opacity=".5" d="m-18.437 187.281.029-39.207.065-83.604S-12 64.365 0 64.365c11.75 0-10.407.061-10.407.061l-.019 25.105-.047 59.499-.027 38.207" class="tertiary" style="mix-blend-mode:multiply" transform="translate(215 118.925)"/><path d="M233.34 304.233h53.48v38.99l-51.32 9.49a114.3 114.3 0 0 1-41.64-.03l-53.18-9.484v-38.99l55.98.024z" class="tertiary"/><path fill-opacity=".5" d="m-63.374 14.723-8.43-.733V-25l8.48-.052z" class="tertiary" style="mix-blend-mode:multiply" transform="translate(215 329.422)"/></g><path fill="#3A3347" d="M-22.622-12.535v-27.887c0-11.038 8.962-20 20-20h5.244c11.038 0 20 8.962 20 20v80.844c0 11.038-8.962 20-20 20h-5.244c-11.038 0-20-8.962-20-20V29.164" class="secondary" style="display:none" transform="translate(309.378 315.421)"/><g mask="url(#r)" style="display:block"><path fill="none" stroke="#121331" stroke-linecap="round" stroke-linejoin="round" stroke-width="7" d="M286.756 302.886v-27.887c0-11.038 8.962-20 20-20H312c11.038 0 20 8.962 20 20q0 0 0 0v80.844c0 11.038-8.962 20-20 20h-5.244c-11.038 0-20-8.962-20-20v-11.258" class="primary"/></g><path fill="none" stroke="#121331" stroke-linecap="round" stroke-linejoin="round" stroke-width="7" d="M317.191 294.365h15.112m-15.112 42.224h15.112" class="primary" style="display:block"/><g mask="url(#s)" style="display:block"><path fill="none" stroke="#121331" stroke-linecap="round" stroke-linejoin="round" stroke-width="7" d="m57.533 335.79 55.134.99m62.614-45.747 19.54-8.7M85.162 240.24l8.7 19.54m50.164 112.67 8.7 19.54m-95.11-99.47 55.269 1.267m63.63 44.427 19.968 7.665m-47.775-107.303-7.665 19.968M96.846 373.686l-7.665 19.968" class="primary"/></g><path fill="none" stroke="#121331" stroke-width="7" d="M22.622-40.422v80.844c0 11.038-8.962 20-20 20h-5.244c-11.038 0-20-8.962-20-20v-80.844c0-11.038 8.962-20 20-20h5.244c11.038 0 20 8.962 20 20z" class="primary" style="display:block" transform="translate(119.75 315.437)"/><g mask="url(#t)" style="display:block"><path fill="none" stroke="#121331" stroke-linecap="round" stroke-linejoin="round" stroke-width="7" d="M276.781 68.319c-11.772-10.017-41.371-14.513-69.148-13.489-22.627.834-44.044 5.33-53.633 13.489m61 114.651V54.88m-71.818 288.351 50.683 9.455a114 114 0 0 0 41.632.033l51.321-9.488m.182-39.056H143.364m143.573.134-.049 38.761m-90.325-39.864.029-36.207.065-83.604S203 183.29 215 183.29c11.75 0 18.343.105 18.343.105l-.019 25.105-.047 59.499-.027 35.207" class="primary"/></g></g><g clip-path="url(#u)" style="display:none"><g style="display:none"><path class="tertiary"/><path class="tertiary" style="mix-blend-mode:multiply"/><path class="tertiary"/><path class="tertiary" style="mix-blend-mode:multiply"/></g><g fill="none" style="display:none"><path class="primary"/><path class="primary"/></g><g style="display:none"><path class="secondary"/><path class="secondary"/><path fill="none" class="secondary"/></g><g mask="url(#v)" style="mix-blend-mode:multiply;display:none"><path class="secondary"/><path fill="none" class="secondary"/></g><g fill="none" style="display:none"><path class="primary"/><path class="primary"/><path class="primary"/><path class="primary"/><path class="primary"/></g></g></g></svg>